<?xml version="1.0" encoding="utf-8"?>
<!-- Generator: Adobe Illustrator 27.5.0, SVG Export Plug-In . SVG Version: 6.00 Build 0)  -->
<svg version="1.1" xmlns="http://www.w3.org/2000/svg" xmlns:xlink="http://www.w3.org/1999/xlink" x="0px" y="0px"
	 viewBox="0 0 500 500" style="enable-background:new 0 0 500 500;" xml:space="preserve">
<g id="Background_2">
	<g>
		<defs>
			<rect id="SVGID_00000071541524852450143590000016200420551080814221_" width="500" height="500"/>
		</defs>
		<clipPath id="SVGID_00000040556565848430846620000001071515339222396341_">
			<use xlink:href="#SVGID_00000071541524852450143590000016200420551080814221_"  style="overflow:visible;"/>
		</clipPath>
		<g style="clip-path:url(#SVGID_00000040556565848430846620000001071515339222396341_);">
			
				<linearGradient id="SVGID_00000053536197207650787110000006105564804028777094_" gradientUnits="userSpaceOnUse" x1="34.3743" y1="602.7006" x2="258.6815" y2="218.1735">
				<stop  offset="0" style="stop-color:#141414"/>
				<stop  offset="1" style="stop-color:#000000"/>
			</linearGradient>
			<polygon style="fill:url(#SVGID_00000053536197207650787110000006105564804028777094_);" points="-125,500 150.121,285.989 
				313.566,500 			"/>
			
				<linearGradient id="SVGID_00000165215161090675139400000008210976626438963379_" gradientUnits="userSpaceOnUse" x1="181.3564" y1="700.6106" x2="470.9389" y2="268.6102">
				<stop  offset="0" style="stop-color:#141414"/>
				<stop  offset="1" style="stop-color:#000000"/>
			</linearGradient>
			<polygon style="fill:url(#SVGID_00000165215161090675139400000008210976626438963379_);" points="625,449.769 625,500 
				313.566,500 150.121,285.989 			"/>
			
				<linearGradient id="SVGID_00000114787653666031820180000003942176649678996912_" gradientUnits="userSpaceOnUse" x1="124.3698" y1="120.8265" x2="678.6116" y2="554.0128">
				<stop  offset="0" style="stop-color:#141414"/>
				<stop  offset="1" style="stop-color:#000000"/>
			</linearGradient>
			<polygon style="fill:url(#SVGID_00000114787653666031820180000003942176649678996912_);" points="289.434,104.802 
				150.121,285.989 625,449.769 			"/>
			
				<linearGradient id="SVGID_00000016073493395706323110000012115066324205680558_" gradientUnits="userSpaceOnUse" x1="684.0027" y1="114.3603" x2="279.6708" y2="404.837">
				<stop  offset="0" style="stop-color:#141414"/>
				<stop  offset="1" style="stop-color:#000000"/>
			</linearGradient>
			<polygon style="fill:url(#SVGID_00000016073493395706323110000012115066324205680558_);" points="625,43.088 289.434,104.802 
				625,449.769 			"/>
			
				<linearGradient id="SVGID_00000078046071036980254910000004540677378762797704_" gradientUnits="userSpaceOnUse" x1="528.8798" y1="-105.418" x2="185.9059" y2="140.9784">
				<stop  offset="0" style="stop-color:#141414"/>
				<stop  offset="1" style="stop-color:#000000"/>
			</linearGradient>
			<polygon style="fill:url(#SVGID_00000078046071036980254910000004540677378762797704_);" points="79.308,0 289.434,104.802 
				625,43.088 			"/>
			
				<linearGradient id="SVGID_00000162347801060626319710000004621904479245812138_" gradientUnits="userSpaceOnUse" x1="644.527" y1="-140.0585" x2="318.1534" y2="40.3369">
				<stop  offset="0" style="stop-color:#141414"/>
				<stop  offset="1" style="stop-color:#000000"/>
			</linearGradient>
			<polygon style="fill:url(#SVGID_00000162347801060626319710000004621904479245812138_);" points="625,0 625,43.088 79.308,0 			
				"/>
			
				<linearGradient id="SVGID_00000090260007570461719130000011944146477747876274_" gradientUnits="userSpaceOnUse" x1="-40.0392" y1="87.314" x2="278.8183" y2="202.0394">
				<stop  offset="0" style="stop-color:#141414"/>
				<stop  offset="1" style="stop-color:#000000"/>
			</linearGradient>
			<polygon style="fill:url(#SVGID_00000090260007570461719130000011944146477747876274_);" points="79.308,0 150.121,285.989 
				289.434,104.802 			"/>
			
				<linearGradient id="SVGID_00000179604225762821066400000004631087469415686297_" gradientUnits="userSpaceOnUse" x1="-79.5669" y1="-104.8293" x2="147.1148" y2="314.1161">
				<stop  offset="0" style="stop-color:#141414"/>
				<stop  offset="1" style="stop-color:#000000"/>
			</linearGradient>
			<polygon style="fill:url(#SVGID_00000179604225762821066400000004631087469415686297_);" points="-125,0 150.121,285.989 
				79.308,0 			"/>
			
				<linearGradient id="SVGID_00000173160332519402467220000015506325253167021718_" gradientUnits="userSpaceOnUse" x1="-333.0782" y1="322.2736" x2="90.6147" y2="175.1086">
				<stop  offset="0" style="stop-color:#141414"/>
				<stop  offset="1" style="stop-color:#000000"/>
			</linearGradient>
			<polygon style="fill:url(#SVGID_00000173160332519402467220000015506325253167021718_);" points="-125,0 54.678,186.776 
				-125,500 			"/>
			
				<linearGradient id="SVGID_00000121976762840023858080000013873687805026522043_" gradientUnits="userSpaceOnUse" x1="-105.2522" y1="632.2854" x2="161.7809" y2="89.9106">
				<stop  offset="0" style="stop-color:#141414"/>
				<stop  offset="1" style="stop-color:#000000"/>
			</linearGradient>
			<polygon style="fill:url(#SVGID_00000121976762840023858080000013873687805026522043_);" points="-125,500 150.121,285.989 
				54.678,186.776 			"/>
		</g>
		<g style="clip-path:url(#SVGID_00000040556565848430846620000001071515339222396341_);">
			
				<linearGradient id="SVGID_00000129915440739218993250000000734516881837306790_" gradientUnits="userSpaceOnUse" x1="-18.1506" y1="205.3719" x2="83.1329" y2="-0.3464">
				<stop  offset="0" style="stop-color:#000000"/>
				<stop  offset="0.3503" style="stop-color:#FFCC40"/>
				<stop  offset="0.5482" style="stop-color:#FFBA00"/>
				<stop  offset="1" style="stop-color:#000000"/>
			</linearGradient>
			<path style="fill:url(#SVGID_00000129915440739218993250000000734516881837306790_);" d="M150.122,287.989
				c-0.531,0-1.056-0.211-1.442-0.613L-126.441,1.387c-0.766-0.796-0.741-2.063,0.055-2.828c0.796-0.765,2.063-0.742,2.828,0.055
				l269.943,280.607L77.366,0.481c-0.266-1.072,0.389-2.156,1.461-2.422c1.068-0.268,2.156,0.388,2.422,1.461l70.813,285.989
				c0.218,0.879-0.183,1.794-0.975,2.231C150.784,287.908,150.451,287.989,150.122,287.989z"/>
			
				<linearGradient id="SVGID_00000015327023826470708140000014518689520130099360_" gradientUnits="userSpaceOnUse" x1="420.717" y1="351.4227" x2="583.6447" y2="20.4979">
				<stop  offset="0" style="stop-color:#000000"/>
				<stop  offset="0.3503" style="stop-color:#FFCC40"/>
				<stop  offset="0.5482" style="stop-color:#FFBA00"/>
				<stop  offset="1" style="stop-color:#000000"/>
			</linearGradient>
			<path style="fill:url(#SVGID_00000015327023826470708140000014518689520130099360_);" d="M625,451.77
				c-0.521,0-1.042-0.202-1.434-0.605L288.001,106.197c-0.515-0.529-0.696-1.299-0.472-2.002c0.224-0.704,0.817-1.226,1.544-1.359
				l335.565-61.714c1.083-0.2,2.129,0.518,2.328,1.605c0.2,1.086-0.519,2.129-1.606,2.329l-331.882,61.037l332.954,342.283
				c0.771,0.792,0.753,2.058-0.039,2.828C626.006,451.581,625.503,451.77,625,451.77z"/>
			
				<linearGradient id="SVGID_00000095313501091388787260000018391989215345080473_" gradientUnits="userSpaceOnUse" x1="212.3611" y1="280.3622" x2="176.2283" y2="-13.9156">
				<stop  offset="0" style="stop-color:#000000"/>
				<stop  offset="0.3503" style="stop-color:#FFCC40"/>
				<stop  offset="0.5482" style="stop-color:#FFBA00"/>
				<stop  offset="1" style="stop-color:#000000"/>
			</linearGradient>
			<path style="fill:url(#SVGID_00000095313501091388787260000018391989215345080473_);" d="M150.12,287.989
				c-0.426,0-0.854-0.135-1.218-0.414c-0.876-0.674-1.04-1.93-0.367-2.805l137.834-179.262L78.415,1.79
				c-0.988-0.493-1.391-1.694-0.897-2.682C78.011-1.88,79.211-2.283,80.2-1.79l210.127,104.802c0.535,0.267,0.922,0.758,1.057,1.341
				c0.134,0.582,0.001,1.194-0.363,1.668L151.707,287.208C151.313,287.721,150.72,287.989,150.12,287.989z"/>
			
				<linearGradient id="SVGID_00000080185443265772361550000002134274116842740872_" gradientUnits="userSpaceOnUse" x1="97.7833" y1="528.51" x2="68.9814" y2="293.9373">
				<stop  offset="0" style="stop-color:#000000"/>
				<stop  offset="0.3503" style="stop-color:#FFCC40"/>
				<stop  offset="0.5482" style="stop-color:#FFBA00"/>
				<stop  offset="1" style="stop-color:#000000"/>
			</linearGradient>
			<path style="fill:url(#SVGID_00000080185443265772361550000002134274116842740872_);" d="M313.567,502
				c-0.603,0-1.197-0.271-1.592-0.786L149.757,288.807l-273.529,212.771c-0.87,0.678-2.128,0.522-2.807-0.351
				c-0.678-0.871-0.521-2.128,0.352-2.807L148.894,284.41c0.42-0.327,0.953-0.472,1.484-0.404c0.529,0.068,1.009,0.346,1.333,0.77
				l163.444,214.011c0.67,0.878,0.502,2.133-0.376,2.804C314.417,501.866,313.99,502,313.567,502z"/>
		</g>
		<g style="clip-path:url(#SVGID_00000040556565848430846620000001071515339222396341_);">
			
				<radialGradient id="SVGID_00000129195176840578498940000001449240970521060508_" cx="701.7325" cy="453.0289" r="13.978" gradientTransform="matrix(2.7526 1.3289 -0.338 0.7002 -1562.0145 -1181.0728)" gradientUnits="userSpaceOnUse">
				<stop  offset="0" style="stop-color:#FFEF6B"/>
				<stop  offset="0.2995" style="stop-color:#FFBA00"/>
				<stop  offset="1" style="stop-color:#000000;stop-opacity:0"/>
			</radialGradient>
			<path style="fill:url(#SVGID_00000129195176840578498940000001449240970521060508_);" d="M254.926,87.246
				c-2.61,5.405-21.951,1.47-43.201-8.789c-21.25-10.259-36.36-22.958-33.751-28.363c2.61-5.405,21.951-1.47,43.201,8.789
				C242.425,69.143,257.536,81.841,254.926,87.246z"/>
			
				<radialGradient id="SVGID_00000031192718596764242700000014707554879724315058_" cx="741.4536" cy="891.7755" r="13.9783" gradientTransform="matrix(3.2878 3.4227 -0.5607 0.5386 -1952.7128 -2903.1218)" gradientUnits="userSpaceOnUse">
				<stop  offset="0" style="stop-color:#FFEF6B"/>
				<stop  offset="0.2995" style="stop-color:#FFBA00"/>
				<stop  offset="1" style="stop-color:#000000;stop-opacity:0"/>
			</radialGradient>
			<path style="fill:url(#SVGID_00000031192718596764242700000014707554879724315058_);" d="M30.977,162.804
				c-4.329,4.158-28.413-13.891-53.795-40.313C-48.2,96.068-65.266,71.277-60.938,67.119c4.329-4.158,28.413,13.891,53.795,40.313
				C18.239,133.855,35.305,158.645,30.977,162.804z"/>
			
				<radialGradient id="SVGID_00000152235190188825195020000009272607912369105809_" cx="818.719" cy="-628.2832" r="11.2634" gradientTransform="matrix(2.6552 -3.3778 0.6113 0.4805 -1551.9906 3239.218)" gradientUnits="userSpaceOnUse">
				<stop  offset="0" style="stop-color:#FFEF6B"/>
				<stop  offset="0.2995" style="stop-color:#FFBA00"/>
				<stop  offset="1" style="stop-color:#000000;stop-opacity:0"/>
			</radialGradient>
			<path style="fill:url(#SVGID_00000152235190188825195020000009272607912369105809_);" d="M267.71,133.813
				c3.803,2.989-6.505,22.446-23.022,43.459c-16.517,21.013-32.99,35.624-36.792,32.635c-3.802-2.989,6.505-22.446,23.022-43.459
				S263.907,130.823,267.71,133.813z"/>
			
				<radialGradient id="SVGID_00000126301950302586240820000007426996687782409618_" cx="746.9088" cy="-545.8245" r="11.2635" gradientTransform="matrix(4.9232 -3.86 0.4797 0.6119 -3441.4783 3640.4268)" gradientUnits="userSpaceOnUse">
				<stop  offset="0" style="stop-color:#FFEF6B"/>
				<stop  offset="0.2995" style="stop-color:#FFBA00"/>
				<stop  offset="1" style="stop-color:#000000;stop-opacity:0"/>
			</radialGradient>
			<path style="fill:url(#SVGID_00000126301950302586240820000007426996687782409618_);" d="M29.324,379.891
				c2.984,3.806-19.424,26.357-50.05,50.369c-30.626,24.012-57.872,40.392-60.857,36.586c-2.984-3.806,19.424-26.357,50.05-50.369
				C-0.906,392.465,26.34,376.085,29.324,379.891z"/>
			
				<radialGradient id="SVGID_00000052077058496050910400000001187098803804352149_" cx="798.6021" cy="-188.2915" r="11.2637" gradientTransform="matrix(4.2225 -0.794 0.1437 0.7641 -2963.0237 865.6279)" gradientUnits="userSpaceOnUse">
				<stop  offset="0" style="stop-color:#FFEF6B"/>
				<stop  offset="0.2995" style="stop-color:#FFBA00"/>
				<stop  offset="1" style="stop-color:#000000;stop-opacity:0"/>
			</radialGradient>
			<path style="fill:url(#SVGID_00000052077058496050910400000001187098803804352149_);" d="M429.577,78.721
				c0.894,4.753-19.675,12.611-45.942,17.55c-26.267,4.939-48.285,5.09-49.179,0.337c-0.894-4.753,19.675-12.611,45.942-17.55
				C406.665,74.118,428.683,73.967,429.577,78.721z"/>
			
				<radialGradient id="SVGID_00000103944270686326003930000009759727434344727986_" cx="915.3918" cy="820.8333" r="11.2636" gradientTransform="matrix(7.8705 8.1446 -0.5591 0.5403 -6303.9106 -7636.8916)" gradientUnits="userSpaceOnUse">
				<stop  offset="0" style="stop-color:#FFEF6B"/>
				<stop  offset="0.2995" style="stop-color:#FFBA00"/>
				<stop  offset="1" style="stop-color:#000000;stop-opacity:0"/>
			</radialGradient>
			<path style="fill:url(#SVGID_00000103944270686326003930000009759727434344727986_);" d="M530.402,353.842
				c-3.478,3.361-45.987-34.987-94.947-85.652c-48.96-50.665-85.83-94.462-82.352-97.823c3.478-3.361,45.987,34.987,94.947,85.652
				C497.01,306.684,533.88,350.481,530.402,353.842z"/>
			
				<radialGradient id="SVGID_00000183238742655415679680000002305771001363179432_" cx="863.1547" cy="1202.2932" r="11.2638" gradientTransform="matrix(2.7019 3.5618 -0.6194 0.4699 -1349.1428 -3237.5498)" gradientUnits="userSpaceOnUse">
				<stop  offset="0" style="stop-color:#FFEF6B"/>
				<stop  offset="0.2995" style="stop-color:#FFBA00"/>
				<stop  offset="1" style="stop-color:#000000;stop-opacity:0"/>
			</radialGradient>
			<path style="fill:url(#SVGID_00000183238742655415679680000002305771001363179432_);" d="M268.747,441.911
				c-3.853,2.923-20.602-12.669-37.41-34.826c-16.808-22.157-27.309-42.488-23.455-45.411c3.853-2.923,20.602,12.669,37.41,34.826
				C262.099,418.656,272.6,438.988,268.747,441.911z"/>
		</g>
	</g>
</g>
<g id="Designed_by_Freepik">
	<g>
		<g id="XMLID_1_">
			<g id="XMLID_20_">
				<path id="XMLID_28_" style="fill:#F9FBFC;" d="M261.442,464.892c-0.49,0.502-0.91,1.054-1.255,1.646l-0.527-0.273
					c-0.076-0.337-0.396-0.569-0.746-0.528c-0.375,0.044-0.643,0.384-0.599,0.759c0.044,0.375,0.384,0.643,0.758,0.599
					c0.074-0.009,0.144-0.029,0.208-0.059l0.511,0.265c-0.284,0.627-0.49,1.289-0.611,1.975l0.845,0.149
					c0.26-1.479,0.962-2.839,2.029-3.932L261.442,464.892z"/>
				<path id="XMLID_27_" style="fill:#F9FBFC;" d="M267.656,462.285c-0.194,0-0.386,0.007-0.577,0.019l-0.083-0.709
					c0.212-0.169,0.335-0.44,0.301-0.73c-0.052-0.445-0.456-0.763-0.901-0.711c-0.445,0.052-0.763,0.455-0.711,0.901
					c0.034,0.288,0.214,0.522,0.458,0.638l0.083,0.707c-0.808,0.132-1.589,0.376-2.332,0.732l0.37,0.774
					c1.058-0.506,2.199-0.762,3.392-0.762c0.562,0,1.124,0.06,1.67,0.178l0.182-0.839
					C268.903,462.352,268.279,462.285,267.656,462.285z"/>
				<path id="XMLID_26_" style="fill:#F9FBFC;" d="M275.133,465.17c0.375-0.046,0.641-0.387,0.595-0.761
					c-0.046-0.375-0.387-0.641-0.761-0.595c-0.35,0.043-0.606,0.344-0.6,0.689l-0.471,0.411c-0.473-0.487-1.007-0.92-1.594-1.29
					l-0.458,0.726c1.284,0.809,2.288,1.955,2.903,3.313l0.782-0.354c-0.284-0.627-0.643-1.214-1.067-1.75l0.455-0.397
					C274.986,465.175,275.059,465.179,275.133,465.17z"/>
				<path id="XMLID_25_" style="fill:#F9FBFC;" d="M267.036,473.845c-0.437,0.026-0.878,0.039-1.31,0.039
					c-0.997,0-1.962-0.069-2.807-0.203c-0.442-0.07-0.958-0.176-1.438-0.331c1.185,2.107,3.476,3.539,6.102,3.539
					c3.233,0,5.959-2.17,6.737-5.1c-0.772,0.509-1.705,0.935-2.784,1.271C270.201,473.478,268.643,473.749,267.036,473.845z"/>
				<path id="XMLID_21_" style="fill:#F9FBFC;" d="M267.656,464.002c-3.796,0-6.884,3.019-6.884,6.73
					c0,0.482,0.052,0.962,0.155,1.428c0.763,0.547,3.064,1.008,6.055,0.828c3.261-0.196,5.998-1.084,7.556-2.444
					c-0.006-0.221-0.023-0.442-0.051-0.659C274.056,466.531,271.12,464.002,267.656,464.002z M265.211,471.38
					c-1.155,0-2.095-0.94-2.095-2.095c0-1.155,0.94-2.095,2.095-2.095c1.155,0,2.095,0.94,2.095,2.095
					C267.306,470.44,266.366,471.38,265.211,471.38z M270.576,470.351c-0.849,0-1.54-0.691-1.54-1.54
					c0-0.849,0.691-1.541,1.54-1.541c0.849,0,1.541,0.691,1.541,1.541C272.116,469.66,271.425,470.351,270.576,470.351z"/>
			</g>
			<path id="XMLID_18_" style="fill:#F9FBFC;" d="M285.779,466.116c-0.334-0.131-0.912-0.35-1.565-0.269
				c-0.624,0.078-0.956,0.386-0.956,1.14v0.981h2.523v1.945h-2.523v6.177h-2.188v-6.177h-1.517v-1.945h1.517v-1.006
				c0-1.902,1.014-3.151,2.908-3.151c0.728,0,1.31,0.138,1.8,0.349L285.779,466.116z"/>
			<path id="XMLID_16_" style="fill:#F9FBFC;" d="M291.104,469.89c-0.2-0.034-0.405-0.052-0.596-0.052
				c-1.014,0-1.71,0.62-1.71,1.827v4.425h-2.188v-8.122h2.12v0.888c0.511-0.763,1.291-1.106,2.288-1.106
				c0.469,0,0.96,0.144,1.239,0.381L291.104,469.89z"/>
			<path id="XMLID_13_" style="fill:#F9FBFC;" d="M299.786,472.017c0,0.251-0.017,0.553-0.042,0.738h-5.758
				c0.235,1.173,1.056,1.685,2.087,1.685c0.704,0,1.467-0.285,2.053-0.779l1.282,1.408c-0.922,0.846-2.095,1.232-3.461,1.232
				c-2.489,0-4.216-1.693-4.216-4.249c0-2.556,1.676-4.3,4.107-4.3C298.177,467.75,299.778,469.485,299.786,472.017z
				 M293.995,471.262h3.595c-0.201-1.039-0.83-1.626-1.768-1.626C294.791,469.636,294.187,470.257,293.995,471.262z"/>
			<path id="XMLID_10_" style="fill:#F9FBFC;" d="M308.453,472.017c0,0.251-0.017,0.553-0.042,0.738h-5.758
				c0.235,1.173,1.056,1.685,2.087,1.685c0.704,0,1.467-0.285,2.053-0.779l1.282,1.408c-0.922,0.846-2.095,1.232-3.461,1.232
				c-2.489,0-4.216-1.693-4.216-4.249c0-2.556,1.676-4.3,4.107-4.3C306.843,467.75,308.444,469.485,308.453,472.017z
				 M302.661,471.262h3.596c-0.201-1.039-0.83-1.626-1.768-1.626C303.457,469.636,302.854,470.257,302.661,471.262z"/>
			<path id="XMLID_7_" style="fill:#F9FBFC;" d="M317.903,472.025c0,2.439-1.693,4.275-3.931,4.275c-1.09,0-1.861-0.428-2.389-1.056
				v4.199h-2.179v-11.474h2.137v0.897c0.528-0.662,1.307-1.115,2.422-1.115C316.21,467.75,317.903,469.586,317.903,472.025z
				 M311.475,472.025c0,1.282,0.846,2.238,2.087,2.238c1.291,0,2.095-0.997,2.095-2.238c0-1.24-0.805-2.238-2.095-2.238
				C312.321,469.787,311.475,470.742,311.475,472.025z"/>
			<path id="XMLID_4_" style="fill:#F9FBFC;" d="M321.418,465.311c0,0.788-0.612,1.391-1.4,1.391c-0.788,0-1.391-0.603-1.391-1.391
				c0-0.788,0.604-1.408,1.391-1.408C320.806,463.903,321.418,464.524,321.418,465.311z M321.124,476.09h-2.188v-8.122h2.188V476.09
				z"/>
			<path id="XMLID_2_" style="fill:#F9FBFC;" d="M324.775,470.86l3.059-2.892h2.682l-3.939,3.822l3.964,4.3h-2.69l-3.076-3.285
				v3.285h-2.188v-12.069h2.188V470.86z"/>
		</g>
		<g>
			<path style="fill:#F9FBFC;" d="M175.729,476.016v-1.194c-0.597,0.813-1.576,1.393-2.704,1.393c-2.09,0-3.566-1.592-3.566-4.196
				c0-2.555,1.46-4.213,3.566-4.213c1.078,0,2.057,0.531,2.704,1.41v-4.263h1.244v11.064H175.729z M175.729,473.843v-3.633
				c-0.448-0.697-1.41-1.294-2.405-1.294c-1.609,0-2.571,1.327-2.571,3.102c0,1.775,0.962,3.085,2.571,3.085
				C174.319,475.104,175.281,474.54,175.729,473.843z"/>
			<path style="fill:#F9FBFC;" d="M178.582,472.002c0-2.322,1.659-4.197,3.948-4.197c2.422,0,3.848,1.891,3.848,4.296v0.316h-6.486
				c0.1,1.509,1.161,2.77,2.886,2.77c0.912,0,1.841-0.365,2.471-1.012l0.597,0.813c-0.796,0.796-1.874,1.227-3.185,1.227
				C180.29,476.215,178.582,474.507,178.582,472.002z M182.513,468.834c-1.709,0-2.555,1.443-2.621,2.67h5.258
				C185.134,470.31,184.337,468.834,182.513,468.834z"/>
			<path style="fill:#F9FBFC;" d="M187.273,474.955l0.647-0.895c0.531,0.614,1.543,1.145,2.637,1.145
				c1.228,0,1.891-0.581,1.891-1.377c0-1.94-4.96-0.746-4.96-3.716c0-1.244,1.078-2.306,2.985-2.306c1.36,0,2.323,0.514,2.969,1.161
				l-0.581,0.863c-0.481-0.581-1.36-1.012-2.389-1.012c-1.095,0-1.775,0.547-1.775,1.261c0,1.758,4.96,0.597,4.96,3.716
				c0,1.344-1.078,2.422-3.151,2.422C189.197,476.215,188.086,475.817,187.273,474.955z"/>
			<path style="fill:#F9FBFC;" d="M195.053,466.031c0-0.464,0.382-0.846,0.829-0.846c0.465,0,0.846,0.381,0.846,0.846
				c0,0.465-0.381,0.829-0.846,0.829C195.434,466.86,195.053,466.495,195.053,466.031z M195.268,476.016v-8.012h1.244v8.012H195.268
				z"/>
			<path style="fill:#F9FBFC;" d="M198.569,478.073l0.63-0.929c0.663,0.796,1.46,1.095,2.604,1.095c1.327,0,2.571-0.647,2.571-2.405
				v-1.145c-0.581,0.813-1.559,1.427-2.687,1.427c-2.09,0-3.566-1.559-3.566-4.147c0-2.571,1.46-4.163,3.566-4.163
				c1.078,0,2.04,0.531,2.687,1.41v-1.211h1.244v7.78c0,2.654-1.858,3.483-3.815,3.483
				C200.443,479.267,199.514,479.002,198.569,478.073z M204.374,473.711v-3.5c-0.432-0.697-1.393-1.294-2.389-1.294
				c-1.609,0-2.571,1.277-2.571,3.052c0,1.758,0.962,3.052,2.571,3.052C202.981,475.021,203.943,474.408,204.374,473.711z"/>
			<path style="fill:#F9FBFC;" d="M213.099,476.016v-5.242c0-1.41-0.713-1.858-1.791-1.858c-0.979,0-1.908,0.597-2.372,1.244v5.855
				h-1.244v-8.012h1.244v1.161c0.564-0.663,1.658-1.36,2.853-1.36c1.675,0,2.555,0.846,2.555,2.588v5.623H213.099z"/>
			<path style="fill:#F9FBFC;" d="M215.952,472.002c0-2.322,1.659-4.197,3.948-4.197c2.422,0,3.848,1.891,3.848,4.296v0.316h-6.486
				c0.099,1.509,1.161,2.77,2.886,2.77c0.912,0,1.841-0.365,2.472-1.012l0.597,0.813c-0.796,0.796-1.874,1.227-3.185,1.227
				C217.66,476.215,215.952,474.507,215.952,472.002z M219.883,468.834c-1.708,0-2.555,1.443-2.621,2.67h5.258
				C222.503,470.31,221.707,468.834,219.883,468.834z"/>
			<path style="fill:#F9FBFC;" d="M231.146,476.016v-1.194c-0.597,0.813-1.576,1.393-2.704,1.393c-2.09,0-3.566-1.592-3.566-4.196
				c0-2.555,1.46-4.213,3.566-4.213c1.078,0,2.057,0.531,2.704,1.41v-4.263h1.244v11.064H231.146z M231.146,473.843v-3.633
				c-0.448-0.697-1.41-1.294-2.405-1.294c-1.609,0-2.571,1.327-2.571,3.102c0,1.775,0.962,3.085,2.571,3.085
				C229.736,475.104,230.697,474.54,231.146,473.843z"/>
			<path style="fill:#F9FBFC;" d="M238.327,476.016v-11.064h1.244v4.263c0.647-0.879,1.609-1.41,2.704-1.41
				c2.09,0,3.566,1.659,3.566,4.213c0,2.604-1.476,4.196-3.566,4.196c-1.128,0-2.107-0.581-2.704-1.393v1.194H238.327z
				 M241.96,475.104c1.626,0,2.588-1.31,2.588-3.085c0-1.775-0.962-3.102-2.588-3.102c-0.979,0-1.957,0.597-2.388,1.294v3.633
				C240.003,474.54,240.981,475.104,241.96,475.104z"/>
			<path style="fill:#F9FBFC;" d="M247.201,478.023c0.182,0.083,0.481,0.133,0.68,0.133c0.547,0,0.912-0.182,1.194-0.846
				l0.531-1.211l-3.351-8.095h1.344l2.671,6.569l2.654-6.569h1.36l-4.014,9.637c-0.481,1.161-1.294,1.609-2.356,1.625
				c-0.265,0-0.68-0.05-0.912-0.116L247.201,478.023z"/>
		</g>
	</g>
</g>
</svg>
